<?xml version="1.0" encoding="utf-8"?>
<!-- Generator: Adobe Illustrator 22.0.1, SVG Export Plug-In . SVG Version: 6.00 Build 0)  -->
<svg version="1.1" id="Layer_1" xmlns="http://www.w3.org/2000/svg" xmlns:xlink="http://www.w3.org/1999/xlink" x="0px" y="0px"
	 viewBox="0 0 1600 1200" enable-background="new 0 0 1600 1200" xml:space="preserve">
<g>
	<g>
		<path fill="#414042" d="M493.1,560.3h-30.4v-16.4c27.6,0,51,0,78.8,0v16.4h-30.4v79.4h-18.1V560.3z"/>
		<path fill="#414042" d="M547,611.9c1.1,8.3,8.3,14.4,20.1,14.4c6.2,0,14.2-2.3,18.1-6.3l10.7,10.5c-7.1,7.4-18.8,10.9-29,10.9
			c-23.3,0-37.1-14.4-37.1-36c0-20.5,14-35.3,35.9-35.3c22.6,0,36.7,14,34.1,41.7H547z M583.7,598c-1.1-8.8-7.9-13.1-17.5-13.1
			c-9,0-16.4,4.4-18.9,13.1H583.7z"/>
		<path fill="#414042" d="M665,572.2h16v67.5h-15.7l-0.8-9.9c-3.8,7.9-14.4,11.8-21.9,11.9c-20,0.1-34.8-12.2-34.8-35.9
			c0-23.3,15.5-35.4,35.2-35.3c9,0,17.7,4.2,21.5,10.9L665,572.2z M624.5,605.8c0,12.9,8.9,20.5,20,20.5c26.3,0,26.3-40.9,0-40.9
			C633.4,585.4,624.5,593,624.5,605.8z"/>
		<path fill="#414042" d="M751.5,631c-7.8,7.7-16,10.7-26,10.7c-19.6,0-35.9-11.8-35.9-35.7c0-24,16.3-35.7,35.9-35.7
			c9.6,0,17,2.7,24.4,10l-10.5,11.1c-4-3.6-8.9-5.3-13.5-5.3c-11.2,0-19.4,8.2-19.4,20c0,12.9,8.8,19.7,19.2,19.7
			c5.3,0,10.7-1.5,14.8-5.6L751.5,631z"/>
		<path fill="#414042" d="M775.6,543.8v37.5c6-7.8,13.4-10.1,21.1-10.1c19.2,0,27.6,13,27.6,32.8v35.6h-16.7v-35.4
			c0-12.3-6.4-17.5-15.3-17.5c-9.9,0-16.7,8.3-16.7,18.5v34.5h-16.7v-95.8H775.6z"/>
		<path fill="#7EBC6F" d="M1009,567c-3.3-5.5-12.3-10.7-22.7-10.7c-13.4,0-19.8,5.6-19.8,12.7c0,8.3,9.9,10.7,21.4,12
			c20,2.5,38.6,7.7,38.6,30.5c0,21.3-18.9,30.5-40.2,30.5c-19.6,0-34.6-6-41.7-23.5l15.1-7.8c4.2,10.5,15.3,15.2,27,15.2
			c11.4,0,22-4,22-14.4c0-9-9.4-12.7-22.2-14.1c-19.6-2.3-37.6-7.5-37.6-29c0-19.7,19.4-27.8,37.1-27.9c14.9,0,30.4,4.2,37.6,19
			L1009,567z"/>
		<path fill="#7EBC6F" d="M1119.3,570.3l-31.2,41.6h-3.6l-30.5-41.7v69.7h-18.1V544h20.8l30,41.2l30-41.2h20.7v95.8h-18.1V570.3z"/>
	</g>
	<polygon fill="#7EBC6F" points="888.7,635.5 859.1,633.4 888.7,661.1 918.2,633.4 	"/>
	<linearGradient id="SVGID_1_" gradientUnits="userSpaceOnUse" x1="887.7964" y1="647.5852" x2="890.564" y2="601.795">
		<stop  offset="0" style="stop-color:#231F20;stop-opacity:0"/>
		<stop  offset="1" style="stop-color:#231F20"/>
	</linearGradient>
	<polygon fill="url(#SVGID_1_)" points="888.7,635.5 859.1,633.4 888.7,661.1 918.2,633.4 	"/>
	<path fill="#7EBC6F" d="M888.7,538.9c-28.6,0-51.9,23.3-51.9,51.9s23.3,51.9,51.9,51.9s51.9-23.3,51.9-51.9
		S917.3,538.9,888.7,538.9z M915.5,628.3c-2.4,1.7-5.7,1.2-7.4-1.2l-9.8-13.5c-3,1.3-6.2,2-9.7,2c-13.6,0-24.7-11.1-24.7-24.7
		c0-13.6,11.1-24.7,24.7-24.7s24.7,11.1,24.7,24.7c0,6.4-2.4,12.3-6.5,16.7l9.8,13.4C918.4,623.2,917.9,626.5,915.5,628.3z"/>
	<g>
		<path fill="#7EBC6F" d="M876.3,591.4h-7c0-10.7,8.7-19.4,19.4-19.4v7C881.9,579,876.3,584.6,876.3,591.4z"/>
	</g>
</g>
</svg>
